<svg width="24" height="24" viewBox="0 0 24 24" xmlns="http://www.w3.org/2000/svg">
<path d="M8.87761 14.1553L6.60095 11.8417C6.27864 11.5141 5.75122 11.5093 5.42294 11.8309C5.4193 11.8344 5.4157 11.838 5.41213 11.8417L4.23861 13.0342C3.92385 13.3541 3.92002 13.8654 4.22997 14.1899L8.57788 18.7422C8.89527 19.0745 9.42255 19.0872 9.7556 18.7706C9.76229 18.7642 9.76887 18.7577 9.77534 18.7511L19.7614 8.60309C20.0795 8.27979 20.0795 7.76182 19.7614 7.43852L18.5907 6.24885C18.2684 5.92131 17.741 5.91648 17.4127 6.23807C17.411 6.23978 17.4092 6.2415 17.4075 6.24323L9.46923 14.1581C9.30651 14.3203 9.04279 14.3202 8.8802 14.1579C8.87933 14.157 8.87847 14.1561 8.87761 14.1553Z" fill="#60a38e"/>
</svg>
